<svg width="922" height="243" viewBox="0 0 922 243" fill="none" xmlns="http://www.w3.org/2000/svg">
<path d="M85.286 7.84326H32.0152C27.038 30.3665 0 165.298 0 165.298H57.2068L74.3181 80.3487L139.529 165.298H192.799C192.799 165.298 219.838 30.3735 224.815 7.84326H167.615C163.387 28.8372 155.807 66.4524 151.184 89.4136C137.085 70.6373 85.286 7.84326 85.286 7.84326Z" fill="white"/>
<path d="M262.981 168.203C283.556 168.885 306.359 161.606 324.457 137.644L318.882 165.305H374.263L387.605 99.0974C397.595 60.2795 372.438 40.8288 323.568 41.2181C274.698 41.6074 255.622 49.5601 255.622 49.5601L260.308 79.7997L313.676 74.1758C328.594 72.2988 336.605 81.4819 332.946 95.5103C314.481 92.2639 295.766 90.7207 277.301 91.9928C216.742 98.4578 206.433 162.037 262.981 168.203ZM326.365 128.134C314.676 138.659 303.388 142.225 292.393 140.571C271.401 136.768 277.51 115.26 297.599 111.763C309.289 110.31 314.946 112.827 329.531 112.451L326.365 128.134Z" fill="white"/>
<path d="M426.388 43.2964H483.595C475.237 83.9982 467.081 124.484 458.702 165.297H401.808C410.006 124.63 418.197 83.9634 426.388 43.2964Z" fill="white"/>
<path d="M460.355 0.0366457C476.39 -0.554243 489.385 6.07066 489.385 14.8436C489.385 23.6166 476.39 31.2077 460.355 31.7986C444.326 32.3895 431.332 25.7646 431.332 16.9917C431.332 8.21871 444.326 0.634486 460.355 0.0366457Z" fill="white"/>
<path d="M534.305 7.84326H591.505C588.853 20.7663 586.5 32.2852 584.264 43.2965H619.688L613.329 74.5789H577.906C575.296 87.4463 572.581 100.814 569.416 116.17C568.125 124.471 570.693 128.079 579.204 128.204H601.487L593.913 165.298L541.455 163.136C513.549 160.758 506.58 143.136 512.515 116.17C516.104 98.3812 520.88 74.5789 520.88 74.5789H503.171L509.446 43.2965H527.162L534.305 7.84326Z" fill="white"/>
<path d="M702.843 77.7282C705.162 66.2719 707.487 54.7948 709.833 43.2899H652.627L628.108 165.291H685.135C689.14 145.604 693.097 126.028 697.054 106.438C714.651 89.6294 731.533 82.2815 748.728 88.0722L757.801 43.2899C742.813 39.3831 724.758 49.6645 702.843 77.7282Z" fill="white"/>
<path d="M816.881 93.6614C828.619 67.1618 872.241 63.54 871.804 93.6614H816.881ZM920.486 116.609C933.016 40.7734 864.973 29.484 812.195 49.8731C760.639 69.7895 740.328 131.249 787.163 158.916C818.922 177.679 875.899 166.653 907.734 144.499L879.1 122.601C856.851 141.023 815.791 138.77 813.236 116.609H920.486V116.609Z" fill="white"/>
<path d="M381.774 225.103C381.024 225.159 380.178 225.277 379.463 224.957C378.907 224.714 378.706 224.158 378.741 223.56C378.838 222.239 379.039 220.849 379.303 219.549C379.532 218.325 379.775 217.116 380.018 215.913C380.365 214.134 380.726 212.368 381.073 210.574C381.434 208.739 381.823 206.911 381.899 205.034C382.198 197.686 373.069 195.92 367.474 195.503C363.969 195.246 360.394 195.288 356.923 195.858C354.243 196.282 351.557 197.04 349.252 198.506C347.642 199.535 346.267 200.925 345.351 202.622C344.58 204.047 344.254 205.583 343.983 207.154C343.983 207.154 350.835 207.154 350.883 207.154C351.029 207.154 351.161 207.21 351.203 207.071C351.244 206.883 351.293 206.702 351.342 206.515C351.73 204.95 352.591 203.553 353.896 202.58C355.194 201.614 356.777 201.113 358.346 200.8C360.019 200.474 361.719 200.355 363.413 200.328C365.156 200.286 366.905 200.328 368.626 200.543C370.945 200.842 374.458 201.509 374.791 204.318C374.881 205.131 374.923 205.972 374.694 206.765C374.478 207.523 374.02 208.079 373.312 208.447C372.403 208.92 371.327 209.045 370.32 209.219C369.362 209.406 368.397 209.476 367.433 209.532C366.662 209.573 365.898 209.671 365.135 209.678C363.17 209.747 361.22 209.803 359.262 209.935C355.632 210.15 352.001 210.574 348.468 211.457C345.205 212.271 341.769 213.821 340.276 217.067C338.86 220.161 340.068 223.928 342.435 226.174C344.886 228.51 348.308 229.65 351.585 230.136C355.097 230.665 358.755 230.595 362.247 230.025C365.475 229.483 368.633 228.384 371.271 226.424C371.528 226.222 371.778 226.014 372.028 225.812C372.222 226.841 372.687 227.807 373.493 228.489C374.374 229.26 375.52 229.643 376.665 229.816C378.289 230.074 379.969 229.99 381.594 229.775C382.267 229.677 382.926 229.573 383.6 229.448C383.78 229.406 383.773 229.177 383.773 229.177L384.405 224.763C384.419 224.763 382.663 225.034 381.774 225.103C382.218 225.062 381.344 225.124 381.774 225.103ZM373.173 214.217C372.93 215.03 372.785 215.899 372.542 216.713C372.319 217.484 372.083 218.221 371.764 218.965C371.126 220.46 370.05 221.614 368.724 222.58C365.857 224.637 362.441 225.59 358.95 225.736C357.166 225.833 355.347 225.764 353.591 225.437C351.973 225.124 350.307 224.596 348.961 223.616C347.662 222.628 346.829 221.141 347.038 219.479C347.246 217.769 348.891 216.574 350.398 216.004C352.015 215.406 353.736 215.135 355.437 214.864C357.187 214.592 358.964 214.509 360.727 214.419C362.282 214.335 363.837 214.28 365.399 214.203C366.502 214.147 367.592 214.057 368.689 213.946C370.293 213.786 371.896 213.619 373.437 213.077C373.34 213.459 373.264 213.835 373.173 214.217Z" fill="white"/>
<path d="M626.735 203.303C623.236 197.944 616.579 195.851 610.512 195.441C603.674 195.003 596.469 196.241 590.999 200.641C588.465 202.678 586.369 205.313 585.293 208.42C584.14 211.708 584.126 215.469 585.147 218.806C586.105 221.983 588.166 224.638 590.867 226.536C593.296 228.218 596.08 229.289 598.94 229.9C602.293 230.623 605.778 230.755 609.2 230.568C612.275 230.38 615.385 229.859 618.259 228.691C620.779 227.676 623.09 226.112 624.798 223.978C625.666 222.9 626.367 221.704 626.908 220.439C627.297 219.556 627.561 218.646 627.852 217.735C626.561 217.735 620.577 217.735 620.466 217.735C620.23 217.735 620.216 217.693 620.133 217.909C619.661 219.32 618.995 220.613 617.967 221.698C616.815 222.935 615.357 223.839 613.809 224.457C610.574 225.785 606.861 225.98 603.404 225.597C600.439 225.257 597.441 224.304 595.143 222.316C593.914 221.246 592.97 219.869 592.436 218.34C592.151 217.527 591.95 216.671 591.894 215.816C591.894 215.803 591.839 214.593 591.894 214.593C593.428 214.593 628.463 214.593 628.644 214.593C628.81 214.593 628.859 214.635 628.873 214.468C628.894 214.252 628.9 214.044 628.921 213.828C629.039 212.09 629.06 210.325 628.762 208.601C628.442 206.738 627.783 204.902 626.735 203.303C627.825 204.986 625.638 201.621 626.735 203.303ZM621.646 209.789C621.584 209.831 593.387 209.803 592.47 209.803C593.387 206.543 595.594 203.936 598.537 202.323C601.328 200.787 604.528 200.217 607.68 200.175C611.067 200.147 614.663 200.634 617.53 202.525C620.008 204.159 621.535 206.821 621.646 209.789Z" fill="white"/>
<path d="M833.349 203.303C829.864 197.944 823.186 195.851 817.119 195.441C810.295 195.003 803.076 196.241 797.627 200.641C795.072 202.678 792.989 205.313 791.9 208.42C790.761 211.708 790.754 215.469 791.754 218.806C792.733 221.983 794.78 224.638 797.488 226.536C799.903 228.218 802.687 229.289 805.568 229.9C808.914 230.623 812.399 230.755 815.828 230.568C818.903 230.38 822.02 229.859 824.88 228.691C827.407 227.676 829.704 226.112 831.412 223.978C832.28 222.9 832.988 221.704 833.536 220.439C833.904 219.556 834.182 218.646 834.473 217.735C833.175 217.735 827.198 217.735 827.087 217.735C826.858 217.735 826.83 217.693 826.761 217.909C826.268 219.32 825.623 220.613 824.581 221.698C823.443 222.935 821.985 223.839 820.43 224.457C817.188 225.785 813.495 225.98 810.038 225.597C807.06 225.257 804.068 224.304 801.771 222.316C800.542 221.246 799.598 219.869 799.063 218.34C798.779 217.527 798.584 216.671 798.508 215.816C798.508 215.803 798.466 214.593 798.508 214.593C800.042 214.593 835.084 214.593 835.271 214.593C835.438 214.593 835.48 214.635 835.487 214.468C835.508 214.252 835.521 214.044 835.542 213.828C835.667 212.09 835.674 210.325 835.39 208.601C835.07 206.738 834.397 204.902 833.349 203.303C834.452 204.986 832.259 201.621 833.349 203.303ZM828.274 209.789C828.205 209.831 800.001 209.803 799.091 209.803C800.001 206.543 802.222 203.936 805.158 202.323C807.949 200.787 811.156 200.217 814.314 200.175C817.702 200.147 821.284 200.634 824.165 202.525C826.629 204.159 828.149 206.821 828.274 209.789Z" fill="white"/>
<path d="M304.763 186.612H297.343L295.517 196.226H287.11L286.097 201.099H294.642L291.366 219.305C291.157 220.473 291.005 221.467 290.928 222.295C290.845 223.136 290.831 223.824 290.901 224.31C291.171 226.208 292.268 227.626 294.191 228.558C295.961 229.413 298.453 229.837 301.66 229.837C302.535 229.837 303.465 229.823 304.423 229.754C305.374 229.712 306.325 229.628 307.262 229.538L307.901 229.469L308.72 224.338L307.616 224.484C306.679 224.596 305.811 224.686 305.013 224.755C304.256 224.811 303.569 224.839 302.958 224.839C301.369 224.839 300.175 224.665 299.383 224.324C298.759 224.067 298.418 223.685 298.356 223.219C298.307 222.906 298.321 222.447 298.377 221.864C298.432 221.238 298.557 220.48 298.731 219.611V219.597L302.16 201.106H311.802L312.677 196.233H303.028L304.763 186.612Z" fill="white"/>
<path d="M340.499 201.37L342.956 201.509L343.99 195.899L343.088 195.802C342.179 195.718 341.144 195.663 340.027 195.663C336.237 195.663 332.891 196.358 330.01 197.727C328.101 198.652 326.393 199.875 324.901 201.391L325.921 196.219H318.847L312.739 229.587H320.166L322.867 215.336C323.144 213.869 323.485 212.541 323.887 211.318C324.297 210.122 324.762 209.024 325.296 208.057C325.803 207.133 326.511 206.264 327.379 205.478C328.281 204.651 329.378 203.9 330.676 203.226C333.092 201.961 336.139 201.342 339.832 201.342L340.499 201.37Z" fill="white"/>
<path d="M387.091 229.594H394.519L400.524 196.226H393.089L387.091 229.594Z" fill="white"/>
<path d="M393.915 191.84H401.335L402.8 183.832H395.254L393.915 191.84Z" fill="white"/>
<path d="M445.507 200.467C444.66 199.41 443.494 198.499 442.015 197.714C440.571 196.956 438.94 196.372 437.135 196.004C435.351 195.621 433.393 195.434 431.269 195.434C427.555 195.434 424.216 196.004 421.266 197.172C419.093 198.013 417.136 199.181 415.373 200.661L416.157 196.233H409.09L403.1 229.601H410.527L413.589 212.701C413.943 210.79 414.491 209.128 415.241 207.717C415.97 206.348 416.893 205.208 417.99 204.311H418.003C419.517 203.018 421.28 202.045 423.279 201.405C425.285 200.752 427.555 200.425 430.061 200.425C431.464 200.425 432.734 200.536 433.865 200.765C434.983 200.981 435.976 201.322 436.836 201.76C437.669 202.17 438.308 202.656 438.745 203.212C439.169 203.713 439.426 204.311 439.509 204.964C439.599 205.548 439.613 206.243 439.558 207.001C439.509 207.787 439.384 208.656 439.19 209.608V209.636L435.622 229.601H443.146L446.617 210.289V210.275C446.86 208.85 447.034 207.641 447.103 206.64C447.193 205.597 447.186 204.756 447.103 204.116C446.909 202.761 446.374 201.537 445.507 200.467Z" fill="white"/>
<path d="M509.946 200.467C509.1 199.41 507.926 198.499 506.441 197.714C504.99 196.956 503.366 196.372 501.568 196.004C499.784 195.621 497.826 195.434 495.695 195.434C491.988 195.434 488.642 196.004 485.699 197.172C483.526 198.013 481.562 199.181 479.806 200.661L480.59 196.233H473.516L467.526 229.601H474.946L478.008 212.701C478.362 210.79 478.924 209.128 479.653 207.717C480.382 206.348 481.298 205.208 482.409 204.311H482.423C483.943 203.018 485.713 202.045 487.691 201.405C489.704 200.752 491.967 200.425 494.48 200.425C495.883 200.425 497.146 200.536 498.291 200.765C499.409 200.981 500.402 201.322 501.255 201.76C502.082 202.17 502.727 202.656 503.151 203.212C503.588 203.713 503.845 204.311 503.935 204.964C504.018 205.548 504.032 206.243 503.984 207.001C503.921 207.787 503.796 208.656 503.602 209.608L503.588 209.636L500.027 229.601H507.552L511.022 210.289V210.275C511.272 208.85 511.439 207.641 511.508 206.64C511.592 205.597 511.592 204.756 511.501 204.116C511.349 202.761 510.8 201.537 509.946 200.467Z" fill="white"/>
<path d="M451.519 229.594H458.954L464.965 196.226H457.538L451.519 229.594Z" fill="white"/>
<path d="M458.349 191.84H465.763L467.228 183.832H459.689L458.349 191.84Z" fill="white"/>
<path d="M556.977 196.226C556.977 196.226 556.255 200.557 556.089 201.683C554.166 199.09 551.028 197.595 548.002 196.74C544.704 195.816 541.206 195.558 537.804 195.697C534.382 195.836 530.953 196.483 527.829 197.922C524.809 199.305 522.067 201.439 520.103 204.13C516.146 209.531 516.049 217.734 520.651 222.816C525.434 228.092 533.132 229.517 539.942 229.107C544.093 228.85 548.369 227.814 551.66 225.131C551.334 226.514 551.014 227.876 550.598 229.232C550.098 230.859 549.251 232.478 548.126 233.751C546.981 235.057 545.454 235.801 543.843 236.316C542.275 236.816 540.671 237.143 539.04 237.296C537.207 237.47 535.361 237.47 533.521 237.351C531.82 237.24 530.12 236.997 528.495 236.483C527.003 235.996 525.503 235.259 524.462 234.049C523.955 233.452 523.567 232.743 523.372 231.971C523.261 231.533 523.226 231.06 523.157 230.588C523.157 230.56 516.889 230.588 515.639 230.588C515.743 231.387 515.82 232.214 516.014 233.007C516.382 234.543 517.187 235.899 518.312 237.011C519.436 238.123 520.818 238.95 522.248 239.59C523.893 240.299 525.614 240.827 527.357 241.231C530.98 242.044 534.708 242.239 538.415 242.058C541.921 241.919 545.503 241.474 548.772 240.16C550.341 239.52 551.806 238.665 553.048 237.497C554.353 236.288 555.485 234.835 556.325 233.264C557.748 230.657 558.386 227.626 558.914 224.734C559.275 222.691 564.051 196.226 564.051 196.226H556.977ZM553.999 211.255C553.881 213.132 553.333 214.946 552.528 216.629C551.764 218.193 550.75 219.674 549.445 220.814C546.884 222.976 543.559 224.053 540.262 224.282C536.798 224.54 533.084 224.157 529.995 222.482C528.544 221.71 527.232 220.633 526.309 219.263C525.351 217.852 524.865 216.219 524.74 214.522C524.476 210.935 525.712 207.355 528.273 204.825C530.73 202.378 533.917 200.89 537.332 200.424C540.775 199.952 544.558 200.195 547.793 201.523C549.32 202.148 550.764 203.045 551.889 204.269C552.979 205.464 553.687 206.959 553.909 208.572C554.02 209.469 554.062 210.358 553.999 211.255C553.999 211.255 553.944 212.138 553.999 211.255Z" fill="white"/>
<path d="M649.643 222.774C649.441 222.03 640.306 196.232 640.306 196.232H632.51L645.117 229.6H652.44L675.903 196.232H667.656C667.663 196.225 649.865 222.377 649.643 222.774Z" fill="white"/>
<path d="M763.632 222.774C763.451 222.03 754.302 196.232 754.302 196.232H746.507L759.127 229.6H766.436L789.906 196.232H781.66C781.66 196.225 763.861 222.377 763.632 222.774Z" fill="white"/>
<path d="M716.74 198.819C716.594 198.646 716.206 198.493 715.976 198.374C715.657 198.201 715.345 198.048 715.019 197.874C714.387 197.589 713.72 197.304 713.068 197.075C711.638 196.546 710.18 196.15 708.695 195.907C705.252 195.253 701.69 195.163 698.206 195.462C691.604 196.032 684.864 198.569 680.65 203.95C678.609 206.57 677.457 209.733 677.325 213.049C677.193 216.497 677.971 220.029 679.977 222.851C684.003 228.531 691.451 230.324 698.032 230.554C701.656 230.693 705.342 230.415 708.84 229.4C712.152 228.433 715.268 226.779 717.865 224.499C719.156 223.373 720.294 222.086 721.197 220.634C722.127 219.125 722.786 217.443 723.21 215.719C724.064 212.285 723.939 208.343 722.481 205.09C721.301 202.406 719.204 200.314 716.74 198.819C718.705 200.015 716.74 198.819 716.74 198.819ZM715.144 216.678C713.852 219.855 711.145 222.365 708.125 223.894C704.891 225.507 701.225 225.889 697.671 225.646C694.332 225.43 690.875 224.533 688.272 222.351C687.057 221.336 686.106 220.043 685.523 218.59C684.878 216.963 684.69 215.142 684.753 213.404C684.885 210.039 686.405 206.994 688.841 204.7C690.931 202.747 693.527 201.44 696.297 200.766C699.552 200.008 703.065 199.966 706.334 200.578C709.555 201.148 712.811 202.615 714.678 205.423C715.74 207.022 716.143 208.871 716.192 210.762C716.268 212.792 715.886 214.787 715.144 216.678C715.622 215.455 715.144 216.678 715.144 216.678Z" fill="white"/>
<path d="M737.102 184.005L728.903 229.594H736.338L744.543 184.005H737.102Z" fill="white"/>
<path d="M883.425 184.019C883.425 184.019 880.912 198.645 880.481 201.03C878.399 198.325 874.984 196.831 871.749 196.059C868.215 195.232 864.474 195.107 860.871 195.489C857.463 195.83 854.117 196.727 851.055 198.256C847.89 199.848 845.259 202.17 843.35 205.166C841.351 208.315 840.247 212.02 840.469 215.781C840.65 218.742 841.608 221.634 843.482 223.963C847.772 229.232 855.179 230.574 861.614 230.505C866.89 230.435 872.45 229.281 876.393 225.52C876.066 226.862 875.594 229.58 875.594 229.58L882.71 229.552L890.776 183.991L883.425 184.019ZM877.628 216.136C876.393 219.34 873.734 221.961 870.77 223.622C867.66 225.374 864.05 225.889 860.524 225.757C857.185 225.618 853.645 224.846 851.042 222.614C849.813 221.558 848.89 220.195 848.383 218.652C847.828 216.928 847.737 215.002 847.939 213.209C848.126 211.443 848.661 209.664 849.521 208.106C850.354 206.612 851.507 205.326 852.819 204.262C855.561 202.038 858.816 200.8 862.301 200.418C863.641 200.258 864.987 200.258 866.313 200.258C867.931 200.258 869.548 200.404 871.124 200.814C874.303 201.697 877.372 203.831 878.336 207.126C878.753 208.579 878.795 210.178 878.677 211.673C878.531 213.202 878.177 214.69 877.628 216.136C878.121 214.856 877.156 217.394 877.628 216.136Z" fill="white"/>
</svg>
